<?xml version="1.0" encoding="UTF-8" standalone="no"?>
<!-- Created with Inkscape (http://www.inkscape.org/) -->

<svg
   width="210mm"
   height="297mm"
   viewBox="0 0 210 297"
   version="1.1"
   id="svg5"
   inkscape:export-filename="/home/patrick/bitmap.png"
   inkscape:export-xdpi="418.51279"
   inkscape:export-ydpi="418.51279"
   inkscape:version="1.1.1 (3bf5ae0d25, 2021-09-20)"
   sodipodi:docname="drawing.svg"
   xmlns:inkscape="http://www.inkscape.org/namespaces/inkscape"
   xmlns:sodipodi="http://sodipodi.sourceforge.net/DTD/sodipodi-0.dtd"
   xmlns="http://www.w3.org/2000/svg"
   xmlns:svg="http://www.w3.org/2000/svg">
  <sodipodi:namedview
     id="namedview7"
     pagecolor="#505050"
     bordercolor="#ffffff"
     borderopacity="1"
     inkscape:pageshadow="0"
     inkscape:pageopacity="0"
     inkscape:pagecheckerboard="1"
     inkscape:document-units="mm"
     showgrid="false"
     inkscape:zoom="1.8751066"
     inkscape:cx="442.64151"
     inkscape:cy="381.04501"
     inkscape:window-width="1920"
     inkscape:window-height="1020"
     inkscape:window-x="0"
     inkscape:window-y="0"
     inkscape:window-maximized="1"
     inkscape:current-layer="layer1" />
  <defs
     id="defs2">
    <clipPath
       clipPathUnits="userSpaceOnUse"
       id="clipPath13935">
      <g
         inkscape:label="Clip"
         id="use13937">
        <path
           style="fill:#e01b2b;stroke-width:1;stroke-miterlimit:4;stroke-dasharray:none;paint-order:stroke markers fill"
           d="m 45.662662,206.25633 v -5.68854 h 1.190625 1.190625 v 5.68854 5.68854 h -1.190625 -1.190625 z m 5.556249,0 v -5.68854 h 1.190625 1.190625 v 4.63021 4.63021 h 2.38125 2.38125 v 1.05833 1.05833 h -3.571875 -3.571875 z m 8.995833,0 v -5.68854 h 1.187117 1.187116 l 2.715488,3.61764 2.715487,3.61765 0.07361,-3.61765 0.07361,-3.61764 h 1.183158 1.183159 v 5.68854 5.68854 H 69.401162 68.26883 l -2.637981,-3.5625 -2.63798,-3.5625 -0.198437,-0.009 -0.198438,-0.009 v 3.57188 3.57187 h -1.190625 -1.190625 z m 15.210694,5.33768 -0.796597,-0.3106 -0.857049,-0.52006 -0.857049,-0.52007 0.0013,-0.14139 0.0013,-0.14139 0.64235,-0.79375 0.64235,-0.79375 0.480817,0.33604 0.480814,0.33605 0.851397,0.39156 0.851398,0.39156 h 0.783349 0.783349 l 0.415774,-0.41578 0.415774,-0.41577 v -0.33697 -0.33697 l -0.46302,-0.40703 -0.463021,-0.40703 -1.581655,-0.45265 -1.581653,-0.45265 -0.726834,-0.51755 -0.726837,-0.51755 -0.26583,-0.98722 -0.265832,-0.98723 0.268505,-0.97244 0.268504,-0.97244 0.826363,-0.58842 0.826362,-0.58843 1.385602,-0.1149 1.385604,-0.11491 1.330259,0.44185 1.330259,0.44184 0.269139,0.32429 0.269137,0.32429 -0.519348,0.82026 -0.519351,0.82025 -0.975995,-0.49759 -0.975994,-0.49759 h -0.949474 -0.949473 l -0.3175,0.3175 -0.3175,0.3175 v 0.58953 0.58954 l 1.444432,0.54043 1.444432,0.54043 0.643242,0.16144 0.643241,0.16144 0.720686,0.75224 0.720685,0.75223 0.116559,1.14459 0.116557,1.14459 -0.512429,0.81493 -0.512432,0.81492 -0.931118,0.44185 -0.931119,0.44184 -1.282931,-0.0201 -1.28293,-0.0201 -0.796597,-0.3106 z m 9.929478,-0.19866 -1.185865,-0.53791 -0.457242,-0.41379 -0.45724,-0.4138 0.677268,-0.88794 0.677264,-0.88794 0.901385,0.68752 0.901383,0.68751 1.186801,0.13377 1.186802,0.13378 0.39901,-0.33115 0.39901,-0.33115 v -0.45577 -0.45576 l -0.463021,-0.41327 -0.46302,-0.41327 -1.189138,-0.3168 -1.189136,-0.31681 -0.984829,-0.50242 -0.984829,-0.50242 -0.273429,-0.51091 -0.273431,-0.51091 v -1.06328 -1.06327 l 0.316722,-0.69514 0.316723,-0.69513 0.995653,-0.50794 0.995653,-0.50794 1.135021,0.002 1.13502,0.002 0.971015,0.2697 0.971013,0.2697 0.590875,0.47846 0.590876,0.47846 -0.599752,0.81121 -0.599755,0.81121 -0.878896,-0.51856 -0.878895,-0.51856 -1.114629,0.0822 -1.114626,0.0822 -0.290176,0.46302 -0.290177,0.46302 0.28574,0.46302 0.285739,0.46302 1.4327,0.46213 1.432698,0.46213 0.88034,0.45044 0.88034,0.45044 0.37643,0.72794 0.376431,0.72794 v 1.03579 1.03579 l -0.57359,0.7292 -0.57359,0.7292 -0.87312,0.36481 -0.87312,0.36482 -1.265269,-0.006 -1.265269,-0.006 -1.185868,-0.53791 z M 66.95397,188.815 l -1.595149,-0.61443 -1.447559,-0.72813 -1.44756,-0.72813 -2.116666,-1.38029 -2.116667,-1.3803 -1.149511,-0.96838 -1.149514,-0.96839 h 0.532561 0.532562 l 0.385323,-0.14786 0.385323,-0.14786 1.554546,1.36841 1.554543,1.36841 1.962052,1.33063 1.962052,1.33063 2.13899,1.14857 2.138989,1.14857 -0.264583,-0.009 -0.264583,-0.009 -1.595149,-0.61443 z m -9.390591,-2.37051 -1.978843,-1.15873 -1.911479,-1.77022 -1.91148,-1.77022 -1.305343,-1.95165 -1.305343,-1.95165 -0.522143,-1.40326 -0.522143,-1.40326 -0.183595,-1.35365 -0.183595,-1.35364 0.274767,-1.48635 0.274767,-1.48636 0.716335,-1.52563 0.716335,-1.52562 1.873125,-1.85661 1.873126,-1.85661 1.378852,-0.73403 1.378849,-0.73404 -1.521486,1.53231 -1.521489,1.53231 -0.320384,1.08903 -0.320384,1.08903 v 0.91347 0.91347 l 0.426061,1.43708 0.426061,1.43709 0.494549,0.971 0.494548,0.97099 1.296559,1.713 1.296562,1.71299 -0.642292,0.29265 -0.642295,0.29265 -0.652134,-0.72768 -0.652134,-0.72769 -1.319618,-1.94039 -1.319617,-1.9404 v 0.41621 0.4162 l 0.499348,1.31417 0.499346,1.31418 0.815411,1.32521 0.815409,1.32521 -0.57988,0.40616 -0.579876,0.40616 h -0.242689 -0.242689 l -0.365916,-0.46302 -0.365916,-0.46302 -1.360969,-2.05055 -1.360966,-2.05055 -0.09105,0.091 -0.09105,0.091 0.406825,1.15306 0.406825,1.15307 0.908243,1.62409 0.908241,1.62409 -0.292179,0.29218 -0.29218,0.29218 0.676783,0.16986 0.676786,0.16986 1.26787,1.58074 1.26787,1.58075 1.99622,1.75176 1.99622,1.75177 0.387427,0.34873 0.387424,0.34874 h -0.128373 -0.128376 z m 33.427257,-0.19035 -1.370983,-0.22888 -2.597766,-0.83112 -2.597769,-0.83111 -2.910417,-1.25104 -2.910416,-1.25104 -2.600309,-1.3089 -2.600309,-1.3089 2.26958,-0.86211 2.269579,-0.8621 v -1.70474 -1.70475 h 0.11043 0.110429 l 2.031822,1.20125 2.03182,1.20125 2.818686,1.41357 2.818688,1.41357 1.813808,0.56018 1.813806,0.56018 h 0.707009 0.707009 l 0.588037,-0.41187 0.588039,-0.41188 v 0.27959 0.27958 l -0.563886,0.56389 -0.563888,0.56388 -2.280382,-0.14082 -2.280386,-0.14083 -2.685459,-0.94682 -2.68546,-0.94682 -2.051529,-0.93491 -2.051526,-0.93491 -0.09095,0.0909 -0.09095,0.0909 3.637314,1.74307 3.637315,1.74307 1.984374,0.70922 1.984375,0.70923 2.159029,0.14186 2.159027,0.14186 0.685244,-0.68524 0.685242,-0.68524 0.03177,-1.13651 0.03177,-1.1365 0.266335,1.10519 0.266332,1.10519 -0.169018,0.67342 -0.169019,0.67343 -0.564684,0.52608 -0.564687,0.52609 -1.179618,0.17689 -1.179618,0.17689 -1.850221,-0.30555 -1.850221,-0.30556 -2.929416,-0.94702 -2.929416,-0.94702 -2.120069,-0.89413 -2.120069,-0.89413 -0.09343,0.0934 -0.09343,0.0934 3.118249,1.38094 3.118247,1.38094 3.096352,1.04314 3.096353,1.04314 2.088229,0.30436 2.088226,0.30437 1.099275,-0.54388 1.099272,-0.54388 v 0.19571 0.1957 l -0.541202,0.68803 -0.5412,0.68803 -0.980154,0.27222 -0.980152,0.27222 -0.926041,-0.0294 -0.926042,-0.0295 z m -28.029549,-3.30291 -2.614051,-1.74155 -0.215924,-0.20739 -0.215921,-0.20739 0.550055,-0.14384 0.550056,-0.14385 2.179407,1.86216 2.17941,1.86215 0.251354,0.23063 0.251354,0.23064 h -0.150844 -0.150842 z"
           id="path13941"
           inkscape:export-filename="/home/patrick/data/Workspaces/ILNSS_Logo.png"
           inkscape:export-xdpi="418.51279"
           inkscape:export-ydpi="418.51279"
           transform="translate(42.705142,-77.237635)" />
      </g>
    </clipPath>
  </defs>
  <g
     inkscape:label="Layer 1"
     inkscape:groupmode="layer"
     id="layer1">
    <g
       id="g13420"
       transform="translate(42.705141,-77.237636)"
       inkscape:export-filename="/home/patrick/data/Workspaces/ILNSS_Logo.png"
       inkscape:export-xdpi="418.51279"
       inkscape:export-ydpi="418.51279">
      <path
         style="fill:none;paint-order:stroke markers fill;stroke-width:1;stroke-miterlimit:4;stroke-dasharray:none"
         d="m 77.085016,212.02233 0.598397,-0.11507 0.459936,0.12041 0.459936,0.1204 -1.058334,-0.005 -1.058333,-0.005 0.598398,-0.11506 z m 10.318749,0 0.598397,-0.11507 0.459936,0.12041 0.459936,0.1204 -1.058333,-0.005 -1.058334,-0.005 0.598398,-0.11506 z m 4.62236,-3.51704 v -0.92604 l 0.121002,0.46302 0.121,0.46302 -0.121,0.46302 -0.121002,0.46302 z m -10.359243,0.11024 0.02088,-0.50712 0.138965,0.34727 0.138964,0.34727 -0.15985,0.15985 -0.159854,0.15985 0.02088,-0.50712 z m 7.672916,0 0.02088,-0.50712 0.138965,0.34727 0.138964,0.34727 -0.15985,0.15985 -0.159854,0.15985 0.02088,-0.50712 z m -3.175,-5.02708 0.02088,-0.50712 0.138964,0.34727 0.138965,0.34726 -0.159851,0.15986 -0.159853,0.15985 0.02087,-0.50712 z m -39.906824,-3.21017 0.727604,-0.11022 0.727605,0.11022 0.727604,0.11022 H 46.985578 45.53037 Z m 5.291667,0 0.727604,-0.11022 0.727604,0.11022 0.727604,0.11022 h -1.455208 -1.455209 z m 9.264054,-2.6e-4 0.731242,-0.11058 0.591674,0.11419 0.591675,0.11418 -1.322917,-0.004 -1.322916,-0.004 z m 7.933861,2.6e-4 0.727604,-0.11022 0.727604,0.11022 0.727604,0.11022 H 69.47516 68.019952 Z m 8.072876,-0.2622 0.598398,-0.11507 0.459936,0.12041 0.459935,0.1204 -1.058333,-0.005 -1.058333,-0.005 0.598397,-0.11506 z m 10.31875,0 0.598397,-0.11507 0.459936,0.12041 0.459936,0.1204 -1.058334,-0.005 -1.058333,-0.005 0.598398,-0.11506 z M 75.82516,196.31884 v -0.2802 l 0.264583,0.16352 0.264583,0.16352 v 0.11668 0.11668 H 76.089743 75.82516 Z m -16.139582,-8.68715 v -0.3243 l -0.305465,0.18879 -0.305464,0.18879 0.203036,-0.32852 0.203036,-0.32852 0.283226,0.28323 0.283229,0.28323 -0.180801,0.18079 -0.180797,0.1808 z m 36.512497,-1.71588 v -0.0999 l 0.463021,-0.36313 0.463021,-0.36313 -0.363125,0.46302 -0.363127,0.46303 h -0.09989 -0.0999 z m -30.244392,-1.07813 -0.384275,-0.38428 -0.206211,0.18584 -0.206208,0.18584 0.200977,-0.34796 0.200978,-0.34797 0.502901,0.45512 0.502899,0.45512 v 0.0913 0.0913 h -0.113393 -0.113392 z m 28.326163,0.20905 0.330729,-0.13346 0.330729,0.13346 0.33073,0.13345 h -0.661459 -0.661458 z m -38.583044,-1.08155 -0.641432,-0.7276 0.727604,0.64143 0.727604,0.64144 v 0.0862 0.0862 h -0.08617 -0.08617 z m 40.765856,0.66011 V 184.493 l 0.37332,-0.30983 0.373319,-0.30983 0.198268,0.34358 0.198265,0.34358 -0.216513,-0.19614 -0.216512,-0.19615 -0.355073,0.29469 -0.355074,0.29468 z m -43.670489,-1.71844 -0.911799,-0.99219 0.992187,0.9118 0.992188,0.9118 v 0.0804 0.0804 h -0.08039 -0.08039 z m 6.859658,0.52917 -0.363124,-0.46302 0.46302,0.36312 0.463021,0.36313 v 0.0999 0.0999 h -0.0999 -0.09989 z m 28.009026,-0.099 0.326321,-0.32877 0.148111,0.14812 0.148114,0.14811 -0.474433,0.18065 -0.474432,0.18066 z m 9.63733,-0.23175 v -0.66146 l 0.133454,0.33073 0.133453,0.33073 -0.133453,0.33073 -0.133454,0.33073 z m -40.556772,-0.19844 -0.363125,-0.46302 0.463021,0.36312 0.463021,0.36313 v 0.0999 0.0999 h -0.0999 -0.09989 z m 5.820833,-1.05833 -0.363125,-0.46302 0.463021,0.36312 0.463021,0.36313 v 0.0999 0.0999 h -0.0999 -0.09989 z m 32.048331,0.36312 v -0.0999 l 0.463021,-0.36313 0.463021,-0.36312 -0.363125,0.46302 -0.363127,0.46302 h -0.09989 -0.0999 z m -11.789533,-0.57616 -0.513591,-0.41147 0.595313,0.28849 0.595312,0.28849 v 0.12298 0.12298 h -0.08172 -0.08172 z m -1.439633,-0.51457 -0.661458,-0.37812 0.28016,-0.009 0.280159,-0.009 0.51359,0.38846 0.513591,0.38846 -0.132292,-0.001 -0.132291,-0.001 z m -1.453335,-0.65843 -0.161649,-0.26155 0.410617,0.15757 0.410618,0.15757 v 0.10398 0.10399 h -0.248968 -0.24897 z m 15.476251,-1.17803 v -0.38127 l 0.239908,-0.14827 0.239909,-0.14827 -0.138475,0.52953 -0.138475,0.52953 h -0.101433 -0.101434 z m -14.618228,-0.82841 -0.727604,-0.39473 v -0.13064 -0.13064 l 0.79375,0.41047 0.79375,0.41046 v 0.1255 0.12549 l -0.06615,-0.0106 -0.06615,-0.0106 -0.727604,-0.39473 z m 13.043955,-1.06149 -0.383651,-1.30072 -0.08159,-0.39688 -0.08159,-0.39687 0.542948,1.29746 0.542949,1.29746 -0.07771,0.40014 -0.07771,0.40013 z m -31.126349,-3.81426 v -4.36563 l 0.08914,2.18282 0.08914,2.18281 -0.08914,2.18281 -0.08914,2.18281 z m -8.343542,2.18281 -0.363125,-0.46302 0.463021,0.36312 0.463021,0.36313 v 0.0999 0.0999 h -0.0999 -0.09989 z m 1.852083,-0.26458 -0.363125,-0.46302 0.463021,0.36312 0.463021,0.36313 v 0.0999 0.0999 h -0.0999 -0.09989 z m -8.412028,-1.01424 0.02089,-0.50712 0.138964,0.34727 0.138965,0.34726 -0.159853,0.15986 -0.159853,0.15985 0.02089,-0.50712 z m 22.048848,-4.47587 5.29e-4,-4.7625 0.08749,2.46078 0.08749,2.46078 -0.08799,2.30172 -0.08799,2.30172 5.29e-4,-4.7625 z m 7.949591,3.81886 -0.1744,-0.28219 0.1261,-0.1261 0.126098,-0.1261 0.156676,0.40829 0.156673,0.40828 h -0.108374 -0.108373 z m -26.050577,-1.58551 v -0.2802 l 0.264583,0.16352 0.264584,0.16352 v 0.11668 0.11667 h -0.264584 -0.264583 z m 0.860473,-4.87918 0.0053,-1.05833 0.115068,0.59839 0.115067,0.5984 -0.120407,0.45994 -0.120412,0.45993 0.0053,-1.05833 z m 3.394908,-3.38216 0.110244,-0.0749 0.529166,-0.38815 0.529167,-0.38815 -0.363125,0.46302 -0.363127,0.46302 h -0.276283 -0.276283 z m -2.138714,-0.53709 v -0.0828 l 0.859895,-0.77711 0.859896,-0.7771 -0.777105,0.85989 -0.777105,0.8599 h -0.08279 -0.08279 z m 29.211318,-0.51252 -0.504029,-0.59531 0.595313,0.50402 0.595312,0.50403 v 0.0913 0.0913 h -0.09128 -0.09128 z m 23.176177,-2.4474 -1.16851,-1.19062 h 0.13229 0.13229 l 1.16851,1.19062 1.16852,1.19063 h -0.1323 -0.13229 z m -49.477079,0.40258 v -0.21292 l 0.692679,-0.17385 0.692679,-0.17385 0.09097,0.091 0.09097,0.091 -0.783653,0.2958 -0.783651,0.2958 z m 44.970129,-1.52706 -1.44617,-1.52135 1.52135,1.44617 1.52135,1.44617 v 0.0752 0.0752 h -0.0752 -0.0752 z m -32.336276,-1.2997 0.33073,-0.13346 0.330729,0.13346 0.330729,0.13345 h -0.661458 -0.661459 z m 1.460244,-0.008 0.468056,-0.12197 0.325694,0.13177 0.325694,0.13178 -0.79375,-0.01 -0.79375,-0.01 0.468056,-0.12197 z m 31.149652,-2.0656 -1.16851,-1.19063 h 0.13229 0.13229 l 1.16851,1.19063 1.16851,1.19062 h -0.13229 -0.13229 z m -32.064192,-0.31304 0.347265,-0.13896 0.159853,0.15985 0.159851,0.15985 -0.507116,-0.0209 -0.507119,-0.0209 0.347266,-0.13897 z"
         id="path13428"
         inkscape:export-filename="/home/patrick/data/Workspaces/ILNSS_Logo.png"
         inkscape:export-xdpi="418.51279"
         inkscape:export-ydpi="418.51279" />
      <path
         style="fill:none;paint-order:stroke markers fill;stroke-width:1;stroke-miterlimit:4;stroke-dasharray:none"
         d="m 48.156661,206.25633 3.7e-4,-5.82083 0.08454,2.99122 0.08454,2.99123 -0.0849,2.82961 -0.0849,2.8296 3.7e-4,-5.82083 z m 2.910417,0 2.64e-4,-5.82083 0.08454,2.99122 0.08454,2.99123 -0.0849,2.82961 -0.0849,2.8296 2.64e-4,-5.82083 z m 11.576607,2.18281 -0.04769,-3.63802 0.198438,-5.3e-4 0.198437,-5.3e-4 -0.0705,2.44801 -0.0705,2.448 -0.08025,1.19063 -0.08025,1.19062 -0.04769,-3.63802 z m 8.002558,-2.18281 2.65e-4,-5.82083 0.08454,2.99122 0.08454,2.99123 -0.0849,2.82961 -0.0849,2.8296 2.65e-4,-5.82083 z m -15.921603,3.3774 1.256771,-0.0991 1.256771,0.0991 1.256771,0.0991 H 55.981411 53.46787 Z m 24.296408,-1.0182 0.02088,-0.50712 0.138965,0.34727 0.138964,0.34727 -0.159851,0.15985 -0.159853,0.15985 0.02088,-0.50712 z m 1.673765,-2.29305 -0.504028,-0.59532 0.595312,0.50403 0.595312,0.50403 v 0.0913 0.0913 h -0.09128 -0.09128 z m 2.824152,-2.73403 0.02088,-0.50712 0.138965,0.34727 0.138964,0.34726 -0.15985,0.15986 -0.159854,0.15985 0.02088,-0.50712 z m 8.131584,-17.22432 0.347266,-0.13896 0.159853,0.15985 0.159851,0.15985 -0.507116,-0.0209 -0.507119,-0.0209 0.347265,-0.13896 z m 1.852084,-1.32291 0.347265,-0.13897 0.159854,0.15985 0.15985,0.15985 -0.507116,-0.0209 -0.507119,-0.0209 0.347266,-0.13896 z m -38.877889,-2.13437 -0.363124,-0.46302 0.46302,0.36312 0.463021,0.36313 v 0.0999 0.0999 h -0.0999 -0.09989 z m 36.083227,-1.57145 0.463021,-0.121 0.463021,0.121 0.463021,0.121 h -0.926042 -0.926041 z m -11.972395,-1.40511 -0.396875,-0.25648 0.315114,-0.004 0.315116,-0.004 0.16352,0.26459 0.163521,0.26458 -0.08176,-0.004 -0.08176,-0.004 z m 0.529167,-2.24896 -0.661458,-0.37812 0.280159,-0.009 0.280159,-0.009 0.513591,0.38846 0.513591,0.38846 -0.132292,-0.001 -0.132292,-0.001 z m -28.574998,-12.6505 v -0.0828 l 0.859896,-0.77711 0.859895,-0.7771 -0.777105,0.85989 -0.777105,0.8599 h -0.08279 -0.08279 z"
         id="path13426"
         inkscape:export-filename="/home/patrick/data/Workspaces/ILNSS_Logo.png"
         inkscape:export-xdpi="418.51279"
         inkscape:export-ydpi="418.51279" />
      <path
         style="fill:#14358e;paint-order:stroke markers fill;stroke-width:1;stroke-miterlimit:4;stroke-dasharray:none"
         d="m 89.451201,168.49969 15.081249,-5.84746 0.20557,-0.17873 0.20557,-0.17873 -2.51016,-2.42835 -2.510157,-2.42834 -1.399577,0.63202 -1.399579,0.63203 -9.260416,4.41805 -9.260416,4.41805 -2.579688,1.21079 -2.579687,1.21078 v 2.36772 2.36772 l 0.463021,-0.17405 0.463021,-0.17405 z"
         id="path14410" />
      <path
         style="fill:#959595;fill-opacity:1;stroke-width:1;stroke-miterlimit:4;stroke-dasharray:none;paint-order:stroke markers fill"
         d="m 82.514774,162.33267 -1.530258,-1.21516 -2.116666,-1.02724 -2.116667,-1.02725 -1.587499,-0.3922 -1.5875,-0.39221 -1.5875,-0.17136 -1.5875,-0.17135 -2.334469,0.29141 -2.334472,0.29141 -2.077211,0.75809 -2.077215,0.75809 -1.806024,1.20614 -1.806025,1.20615 -0.92511,0.7379 -0.925111,0.7379 1.116201,-1.28568 1.116197,-1.28567 1.598914,-1.28321 1.598914,-1.28322 2.178746,-1.06778 2.178748,-1.06778 1.719792,-0.45216 1.719792,-0.45216 3.307291,-0.009 3.307291,-0.009 2.044751,0.58982 2.044747,0.58983 1.659419,0.78851 1.659416,0.78851 1.852084,1.46354 1.852083,1.46353 0.284194,0.14205 0.284197,0.14205 c 0.988707,2.65262 1.178221,3.35218 4.3264,6.90232 l 0.0034,0.17642 0.0034,0.17641 0.550342,1.71979 0.550341,1.71979 0.123862,2.77813 0.123862,2.77812 -0.221681,1.19063 -2.42569,7.03213 c -1.659357,0.36741 -1.824655,0.32836 -2.477795,-0.60659 l 1.58421,-8.73868 -0.141848,-3.11072 -0.583877,-1.85209 c -2.495471,-5.35621 -2.448346,-5.36487 -6.538476,-9.52816 z"
         id="path14408"
         sodipodi:nodetypes="cccccccccccccccccccccccccccccccccccccccccccccccc" />
      <path
         style="fill:#959595;fill-opacity:1;stroke-width:1;stroke-miterlimit:4;stroke-dasharray:none;paint-order:stroke markers fill"
         d="m 78.040532,195.44239 2.083083,-0.93318 1.076835,-0.74102 1.076839,-0.74103 1.536229,-1.41737 1.536231,-1.41737 1.293897,-1.93454 1.293897,-1.93453 0.09537,-0.2666 0.161852,-0.49443 1.86991,0.50679 0.607885,0.0998 -1.072445,1.6733 -1.006374,1.48082 -1.497124,1.45521 -1.497123,1.4552 -1.646023,1.1201 -1.646021,1.1201 -2.022088,0.79046 -2.022086,0.79046 -1.152914,0.16052 -1.152912,0.16052 z"
         id="path14406"
         sodipodi:nodetypes="ccccccccccccccccccccccc" />
      <path
         style="fill:#14358e;paint-order:stroke markers fill;stroke-width:1;stroke-miterlimit:4;stroke-dasharray:none"
         d="m 75.246384,196.4183 0.347265,-0.13897 0.159854,0.15986 0.15985,0.15985 -0.507116,-0.0209 -0.507119,-0.0209 0.347266,-0.13897 z"
         id="path13422" />
      <path
         style="fill:#001285;stroke:none;stroke-width:0.264583px;stroke-linecap:butt;stroke-linejoin:miter;stroke-opacity:1;fill-opacity:1"
         d="m 76.469422,168.24879 23.769998,-14.00275 8.35279,8.61886 -30.826658,10.46561 0.176276,4.18843 -7.740166,2.91363 -4.608771,-1.73449 -9.661546,3.34887 -4.44785,-2.52192 10.568009,-5.81245 0.01529,-4.55776 4.233334,-2.50371 -3.704164,2.74601 v 8.41658 l 7.396345,-3.22984 0.14428,-9.14107 6.332823,2.806"
         id="path15375" />
    </g>
    <g
       id="g5348"
       transform="translate(72.418832,-95.764074)" />
    <path
       style="fill:#e11e1e;stroke-width:1;stroke-miterlimit:4;stroke-dasharray:none;paint-order:stroke markers fill;fill-opacity:1"
       d="m 105.66623,105.7136 -2.61405,-1.74155 -0.21593,-0.20739 -0.21592,-0.20739 0.55006,-0.14384 0.55005,-0.14385 2.17941,1.86216 2.17941,1.86215 0.25135,0.23063 0.25136,0.23064 h -0.15085 -0.15084 z"
       id="path14152"
       inkscape:export-filename="/home/patrick/data/Workspaces/ILNSS_Logo.png"
       inkscape:export-xdpi="418.51279"
       inkscape:export-ydpi="418.51279" />
    <path
       style="fill:#e11e1e;stroke-width:1;stroke-miterlimit:4;stroke-dasharray:none;paint-order:stroke markers fill;fill-opacity:1"
       d="m 133.69578,109.01651 -1.37099,-0.22888 -2.59776,-0.83112 -2.59777,-0.83111 -2.91042,-1.25104 -2.91041,-1.25104 -2.60031,-1.3089 -2.60031,-1.3089 2.26958,-0.86211 2.26958,-0.8621 v -1.704745 -1.70475 h 0.11043 0.11043 l 2.03182,1.20125 2.03182,1.20125 2.81869,1.413575 2.81868,1.41357 1.81381,0.56018 1.81381,0.56018 h 0.70701 0.707 l 0.58804,-0.41187 0.58804,-0.41188 v 0.27959 0.27958 l -0.56389,0.56389 -0.56388,0.56388 -2.28039,-0.14082 -2.28038,-0.14083 -2.68546,-0.94682 -2.68546,-0.94682 -2.05153,-0.93491 -2.05153,-0.93491 -0.091,0.0909 -0.0909,0.0909 3.63732,1.74307 3.63731,1.74307 1.98438,0.70922 1.98437,0.70923 2.15903,0.14186 2.15903,0.14186 0.68524,-0.68524 0.68524,-0.68524 0.0318,-1.13651 0.0318,-1.1365 0.26634,1.10519 0.26633,1.10519 -0.16902,0.67342 -0.16902,0.67343 -0.56468,0.52608 -0.56469,0.52609 -1.17961,0.17689 -1.17962,0.17689 -1.85022,-0.30555 -1.85022,-0.30556 -2.92942,-0.94702 -2.92942,-0.94703 -2.12007,-0.89412 -2.12006,-0.89413 -0.0934,0.0934 -0.0934,0.0934 3.11824,1.38094 3.11825,1.38094 3.09635,1.04314 3.09636,1.04314 2.08823,0.30436 2.08822,0.30437 1.09928,-0.54388 1.09927,-0.54388 v 0.19571 0.1957 l -0.5412,0.68803 -0.5412,0.68803 -0.98016,0.27222 -0.98015,0.27222 -0.92604,-0.0294 -0.92604,-0.0295 z"
       id="path14150"
       inkscape:export-filename="/home/patrick/data/Workspaces/ILNSS_Logo.png"
       inkscape:export-xdpi="418.51279"
       inkscape:export-ydpi="418.51279" />
    <path
       style="fill:#e11e1e;fill-opacity:1;stroke-width:1;stroke-miterlimit:4;stroke-dasharray:none;paint-order:stroke markers fill"
       d="m 100.26852,109.20686 -1.978842,-1.15873 -1.911479,-1.77022 -1.91148,-1.77022 -1.305343,-1.95165 -1.305343,-1.95165 -0.522143,-1.403265 -0.522143,-1.40326 -0.183595,-1.35365 -0.183595,-1.35364 0.274767,-1.48635 0.274767,-1.48636 0.716335,-1.52563 0.716335,-1.52562 1.873125,-1.85661 1.873126,-1.85661 1.378852,-0.73403 1.378849,-0.73404 -1.521486,1.53231 -1.521489,1.53231 -0.320384,1.08903 -0.320384,1.08903 v 0.91347 0.91347 l 0.426061,1.43708 0.426061,1.43709 0.494549,0.971 0.494548,0.97099 1.296559,1.713 1.296562,1.71299 -0.642292,0.29265 -0.642295,0.29265 -0.652134,-0.72768 -0.652134,-0.72769 -1.319618,-1.94039 -1.319617,-1.9404 v 0.41621 0.4162 l 0.499348,1.31417 0.499346,1.31418 0.815411,1.32521 0.815409,1.325215 -0.57988,0.40616 -0.579876,0.40616 H 95.680289 95.4376 l -0.365916,-0.46302 -0.365916,-0.46302 -1.360969,-2.050555 -1.360966,-2.05055 -0.09105,0.091 -0.09105,0.091 0.406825,1.15306 0.406825,1.15307 0.908243,1.624095 0.947622,1.67441 c 0.367703,0.51412 0.06573,0.18129 0.729829,0.87376 l 1.26787,1.58074 1.26787,1.58075 1.99622,1.75176 1.996223,1.75177 0.38742,0.34873 0.38743,0.34874 h -0.12837 -0.12838 z"
       id="path14148"
       sodipodi:nodetypes="cccccccccccccccccccccccccccccccccccccccccccccccccccccccccccccccccc"
       inkscape:export-filename="/home/patrick/data/Workspaces/ILNSS_Logo.png"
       inkscape:export-xdpi="418.51279"
       inkscape:export-ydpi="418.51279" />
    <path
       style="fill:#e11e1e;stroke-width:1;stroke-miterlimit:4;stroke-dasharray:none;paint-order:stroke markers fill;fill-opacity:1"
       d="m 109.65911,111.57737 -1.59515,-0.61443 -1.44756,-0.72813 -1.44756,-0.72813 -2.11666,-1.38029 -2.11667,-1.3803 -1.14951,-0.96838 -1.149514,-0.96839 h 0.532561 0.532562 l 0.385321,-0.14786 0.38532,-0.14787 1.55455,1.36842 1.55454,1.36841 1.96206,1.33063 1.96205,1.33063 2.13899,1.14857 2.13899,1.14857 -0.26459,-0.009 -0.26458,-0.009 -1.59515,-0.61443 z"
       id="path14146"
       inkscape:export-filename="/home/patrick/data/Workspaces/ILNSS_Logo.png"
       inkscape:export-xdpi="418.51279"
       inkscape:export-ydpi="418.51279" />
    <path
       style="fill:#ff0000;stroke-width:1;stroke-miterlimit:4;stroke-dasharray:none;paint-order:stroke markers fill"
       d="m 128.06006,134.15771 -1.18587,-0.53791 -0.45724,-0.41379 -0.45724,-0.4138 0.67727,-0.88794 0.67726,-0.88793 0.90139,0.68752 0.90138,0.6875 1.1868,0.13378 1.1868,0.13378 0.39901,-0.33116 0.39901,-0.33114 v -0.45578 -0.45576 l -0.46302,-0.41327 -0.46302,-0.41327 -1.18913,-0.3168 -1.18914,-0.31681 -0.98483,-0.50242 -0.98483,-0.50242 -0.27343,-0.51091 -0.27343,-0.51091 v -1.06328 -1.06326 l 0.31672,-0.69515 0.31673,-0.69513 0.99565,-0.50793 0.99565,-0.50794 1.13502,0.002 1.13502,0.002 0.97102,0.2697 0.97101,0.2697 0.59088,0.47846 0.59087,0.47846 -0.59975,0.81121 -0.59976,0.81121 -0.87889,-0.51856 -0.8789,-0.51856 -1.11463,0.0822 -1.11462,0.0822 -0.29018,0.46302 -0.29017,0.46302 0.28574,0.46302 0.28573,0.46302 1.4327,0.46213 1.4327,0.46213 0.88034,0.45043 0.88034,0.45044 0.37643,0.72794 0.37643,0.72794 v 1.03579 1.03579 l -0.57359,0.7292 -0.57359,0.7292 -0.87312,0.36481 -0.87312,0.36482 -1.26526,-0.006 -1.26527,-0.006 -1.18587,-0.53791 z"
       id="path14144"
       inkscape:export-filename="/home/patrick/data/Workspaces/ILNSS_Logo.png"
       inkscape:export-xdpi="418.51279"
       inkscape:export-ydpi="418.51279" />
    <path
       style="fill:#ff0000;stroke-width:1;stroke-miterlimit:4;stroke-dasharray:none;paint-order:stroke markers fill"
       d="m 118.13058,134.35638 -0.7966,-0.31061 -0.85705,-0.52006 -0.85705,-0.52006 0.001,-0.14139 0.001,-0.14139 0.64235,-0.79375 0.64235,-0.79375 0.48082,0.33603 0.48082,0.33605 0.85139,0.39157 0.8514,0.39155 h 0.78335 0.78335 l 0.41577,-0.41577 0.41578,-0.41578 v -0.33697 -0.33697 l -0.46302,-0.40703 -0.46302,-0.40703 -1.58166,-0.45265 -1.58165,-0.45265 -0.72684,-0.51755 -0.72683,-0.51755 -0.26583,-0.98722 -0.26584,-0.98723 0.26851,-0.97244 0.2685,-0.97244 0.82637,-0.58842 0.82636,-0.58843 1.3856,-0.1149 1.3856,-0.11491 1.33026,0.44185 1.33026,0.44184 0.26914,0.32429 0.26914,0.32429 -0.51935,0.82026 -0.51935,0.82025 -0.976,-0.49759 -0.97599,-0.49759 h -0.94947 -0.94948 l -0.3175,0.3175 -0.3175,0.3175 v 0.58953 0.58954 l 1.44444,0.54043 1.44443,0.54043 0.64324,0.16144 0.64324,0.16144 0.72069,0.75224 0.72068,0.75223 0.11656,1.14459 0.11656,1.14459 -0.51243,0.81493 -0.51243,0.81492 -0.93112,0.44185 -0.93112,0.44184 -1.28293,-0.0201 -1.28293,-0.0201 -0.7966,-0.3106 z"
       id="path14142"
       inkscape:export-filename="/home/patrick/data/Workspaces/ILNSS_Logo.png"
       inkscape:export-xdpi="418.51279"
       inkscape:export-ydpi="418.51279" />
    <path
       style="fill:#ff0000;stroke-width:1;stroke-miterlimit:4;stroke-dasharray:none;paint-order:stroke markers fill"
       d="m 102.91989,129.01869 v -5.68853 h 1.18711 1.18712 l 2.71549,3.61764 2.71548,3.61764 0.0736,-3.61764 0.0736,-3.61764 h 1.18316 1.18316 v 5.68853 5.68854 h -1.13233 -1.13233 l -2.63798,-3.5625 -2.63798,-3.5625 -0.19844,-0.009 -0.19843,-0.009 v 3.57188 3.57186 h -1.19063 -1.19062 z"
       id="path14140"
       inkscape:export-filename="/home/patrick/data/Workspaces/ILNSS_Logo.png"
       inkscape:export-xdpi="418.51279"
       inkscape:export-ydpi="418.51279" />
    <path
       style="fill:#ff0000;stroke-width:1;stroke-miterlimit:4;stroke-dasharray:none;paint-order:stroke markers fill"
       d="m 93.924053,129.01869 v -5.68853 h 1.190625 1.190625 v 4.63021 4.6302 h 2.38125 2.381247 v 1.05834 1.05833 h -3.571872 -3.571875 z"
       id="path14138"
       inkscape:export-filename="/home/patrick/data/Workspaces/ILNSS_Logo.png"
       inkscape:export-xdpi="418.51279"
       inkscape:export-ydpi="418.51279" />
    <path
       style="fill:#ff0000;stroke-width:1;stroke-miterlimit:4;stroke-dasharray:none;paint-order:stroke markers fill"
       d="m 88.367804,129.01869 v -5.68853 h 1.190625 1.190625 v 5.68853 5.68854 h -1.190625 -1.190625 z"
       id="path13424"
       inkscape:export-filename="/home/patrick/data/Workspaces/ILNSS_Logo.png"
       inkscape:export-xdpi="418.51279"
       inkscape:export-ydpi="418.51279" />
  </g>
</svg>
